# xmcd
#
# Track frame offsets:
#	150
#	17837
#	31826
#	56830
#	95260
#	111502
#	122257
#	141131
#
# Disc length: 2216 seconds
#
# Revision: 1
# Processed by: cddbd v1.5.2PL0 Copyright (c) Steve Scherf et al.
# Submitted via: audiograbber 1.83.01
#
DISCID=6408a608
DTITLE=Hans Prozell´s Session Band - Zieht Euch Warm An
DYEAR=1999
DGENRE=Jazz
TTITLE0=´S Wonderful
TTITLE1=Sweet Georgia Brown
TTITLE2=On The Sunny Side Of The Street
TTITLE3=Party Mix
TTITLE4=Honeysuckle Rose
TTITLE5=Wild Cat Blues
TTITLE6=Rock´n Roll-Medley
TTITLE7=Blueberry Hill
EXTD=
EXTT0=
EXTT1=
EXTT2=
EXTT3=Trinkt Bourbon - Tiroler Hut - Konjunktur Cha Cha Cha - Am Sonntag will
EXTT3=der Erwin - Kriminaltango - Schöner Gigolo - Marina - Moskauer Nächte
EXTT4=
EXTT5=
EXTT6=Johnny B. Good - Charlie Brown - See you later Alligator
EXTT7=
PLAYORDER=
